<svg xmlns="http://www.w3.org/2000/svg" width="92" height="92" viewBox="0 0 92 92">
    <defs>
        <linearGradient id="wg3iye9cua" x1="50%" x2="50%" y1="100%" y2=".27%">
            <stop offset="0%" stop-color="#FFE0B6"/>
            <stop offset="100%" stop-color="#FFFBE6"/>
        </linearGradient>
        <linearGradient id="hmu9t86oqb" x1="50%" x2="50%" y1="100%" y2="0%">
            <stop offset="0%" stop-color="#FFD900"/>
            <stop offset="100%" stop-color="#FCAA38"/>
        </linearGradient>
    </defs>
    <g fill="none" fill-rule="evenodd">
        <g fill-rule="nonzero">
            <g>
                <g>
                    <g>
                        <path fill="url(#wg3iye9cua)" d="M29.2 58.548c-3.716 0-6.74 3.023-6.74 6.738 0 3.716 3.024 6.888 6.74 6.888 3.715 0 6.738-3.172 6.738-6.888 0-3.715-3.023-6.738-6.739-6.738zM42.675 0H33.69c-1.241 0-2.246 1.005-2.246 2.246v9.134c0 1.242 1.005 2.246 2.246 2.246h8.985c1.241 0 2.246-1.004 2.246-2.246V2.246C44.922 1.005 43.917 0 42.676 0zm0 36.087H33.69c-1.241 0-2.246 1.005-2.246 2.246v8.985c0 1.241 1.005 2.246 2.246 2.246h8.985c1.241 0 2.246-1.005 2.246-2.246v-8.985c0-1.241-1.005-2.246-2.246-2.246zM17.969 54.056h-2.246c-1.24 0-2.246-1.006-2.246-2.246V33.84c0-1.24 1.005-2.246 2.246-2.246h13.476c1.24 0 2.246-1.006 2.246-2.246v-8.984c0-1.24-1.005-2.247-2.246-2.247H15.723C7.039 18.118 0 25.158 0 33.841V51.81c0 8.683 7.04 15.723 15.723 15.723h4.492c1.24 0 2.246-1.006 2.246-2.247v-6.738c0-2.48-2.011-4.492-4.492-4.492z" transform="translate(-507 -4817) translate(364 4745) translate(143 72) translate(15.333 7.667)"/>
                        <path fill="url(#hmu9t86oqb)" d="M29.2 40.58h17.968c1.241 0 2.246-1.005 2.246-2.247V11.38c0-1.241-1.005-2.246-2.246-2.246H29.199c-1.241 0-2.246 1.005-2.246 2.246v26.953c0 1.242 1.005 2.246 2.246 2.246zm26.952 31.594H40.43V58.548h15.722c1.258 0 2.246-.988 2.246-2.246s-.988-2.246-2.246-2.246H17.97v18.118H6.739c-1.259 0-2.247.989-2.247 2.247 0 1.257.988 2.246 2.246 2.246h49.414c1.258 0 2.246-.989 2.246-2.246 0-1.258-.988-2.247-2.246-2.247zM29.2 67.533c-1.258 0-2.246-.989-2.246-2.247s.988-2.246 2.246-2.246 2.246.988 2.246 2.246-.988 2.247-2.246 2.247z" transform="translate(-507 -4817) translate(364 4745) translate(143 72) translate(15.333 7.667)"/>
                    </g>
                </g>
            </g>
        </g>
    </g>
</svg>
