<svg xmlns="http://www.w3.org/2000/svg" width="92" height="94" viewBox="0 0 92 94">
    <defs>
        <linearGradient id="j12hd9r4ca" x1="50%" x2="50%" y1="100%" y2="0%">
            <stop offset="0%" stop-color="#FFD900"/>
            <stop offset="100%" stop-color="#FCAA38"/>
        </linearGradient>
        <linearGradient id="djn21px2gb" x1="50%" x2="50%" y1="100%" y2=".27%">
            <stop offset="0%" stop-color="#FFE0B6"/>
            <stop offset="100%" stop-color="#FFFBE6"/>
        </linearGradient>
    </defs>
    <g fill="none" fill-rule="evenodd">
        <g fill-rule="nonzero">
            <g>
                <g>
                    <g>
                        <path fill="url(#j12hd9r4ca)" d="M34.848 29.478V4.419h2.179c1.203 0 2.178-.988 2.178-2.21C39.205.99 38.23 0 37.027 0H10.89C9.686 0 8.712.988 8.712 2.21c0 1.221.974 2.21 2.178 2.21h2.178v25.058C5.084 33.616 0 41.956 0 51.117c0 13.402 10.748 24.306 23.958 24.306 13.211 0 23.959-10.904 23.959-24.306 0-9.16-5.084-17.5-13.069-21.64z" transform="translate(-1076 -2813) translate(933 2740) translate(143 73.045) translate(23 7.778)"/>
                        <path fill="url(#djn21px2gb)" d="M37.027 48.907c-2.422-.174-6.775.72-12.095-1.977-6.262-3.174-11.471-2.294-13.24-2.442-.921 0-1.744.589-2.053 1.47-.623 1.78-.927 3.467-.927 5.159 0 8.528 6.84 15.467 15.246 15.467s15.247-6.94 15.247-15.467c0-1.222-.975-2.21-2.178-2.21zm-8.713-4.42c1.203 0 2.178-.989 2.178-2.209 0-1.22-.975-2.21-2.178-2.21-1.202 0-2.178.99-2.178 2.21s.976 2.21 2.178 2.21zm-8.712-4.419c1.203 0 2.178-.989 2.178-2.21 0-1.22-.975-2.209-2.178-2.209-1.203 0-2.178.99-2.178 2.21s.975 2.21 2.178 2.21zm4.356-8.838c1.203 0 2.178-.99 2.178-2.21s-.975-2.21-2.178-2.21c-1.203 0-2.178.99-2.178 2.21s.975 2.21 2.178 2.21z" transform="translate(-1076 -2813) translate(933 2740) translate(143 73.045) translate(23 7.778)"/>
                    </g>
                </g>
            </g>
        </g>
    </g>
</svg>
