<svg xmlns="http://www.w3.org/2000/svg" width="92" height="94" viewBox="0 0 92 94">
    <defs>
        <linearGradient id="xu0j25lv1a" x1="50%" x2="50%" y1="100%" y2="0%">
            <stop offset="0%" stop-color="#FFD900"/>
            <stop offset="100%" stop-color="#FCAA38"/>
        </linearGradient>
        <linearGradient id="uh5gpkp3bb" x1="50%" x2="50%" y1="100%" y2=".27%">
            <stop offset="0%" stop-color="#FFE0B6"/>
            <stop offset="100%" stop-color="#FFFBE6"/>
        </linearGradient>
    </defs>
    <g fill="none" fill-rule="evenodd">
        <g fill-rule="nonzero">
            <g>
                <g>
                    <g>
                        <path fill="url(#xu0j25lv1a)" d="M65.436 13.672H63.19l-8.984-4.557-8.985 4.557H31.445l-8.984-4.557-8.984 4.557H11.23c-3.728 0-6.738 3.054-6.738 6.836v36.46c0 1.276.988 2.278 2.246 2.278s2.246-1.002 2.246-2.278v-36.46c0-1.276.989-2.278 2.246-2.278h2.247l8.984 4.557 8.984-4.557h13.776l8.985 4.557 8.984-4.557h2.246c1.258 0 2.246 1.002 2.246 2.278v36.46c0 1.276.988 2.278 2.246 2.278s2.246-1.002 2.246-2.278v-36.46c0-3.782-3.01-6.836-6.738-6.836zm-51.96 13.672v13.163c0 4.542 3.05 8.76 7.467 9.498 5.623.938 10.502-3.457 10.502-8.988V27.344c0-2.516-2.01-4.557-4.492-4.557H17.97c-2.481 0-4.492 2.04-4.492 4.557zm31.745 0v13.163c0 4.542 3.05 8.76 7.467 9.498 5.623.938 10.502-3.457 10.502-8.988V27.344c0-2.516-2.011-4.557-4.492-4.557h-8.984c-2.481 0-4.493 2.04-4.493 4.557z" transform="translate(-674 -2813) translate(531 2740) translate(143 73.045) translate(7.667 11.667)"/>
                        <path fill="url(#uh5gpkp3bb)" d="M13.477 27.344h17.968V18.23H13.477v9.114zM11.23 4.557h2.247v9.115h17.968V4.557h2.246c1.258 0 2.246-1.002 2.246-2.278C35.938 1.002 34.95 0 33.691 0h-22.46C9.972 0 8.983 1.002 8.983 2.279c0 1.276.989 2.278 2.246 2.278zm33.991 22.787h17.97V18.23H45.22v9.114zM42.975 4.557h2.246v9.115h17.97V4.557h2.245c1.258 0 2.246-1.002 2.246-2.278 0-1.277-.988-2.279-2.246-2.279h-22.46c-1.259 0-2.247 1.002-2.247 2.279 0 1.276.988 2.278 2.246 2.278zM74.421 54.69H2.246C1.005 54.689 0 55.709 0 56.968v9.114c0 1.26 1.005 2.28 2.246 2.28h6.738v2.278c0 1.26 1.005 2.279 2.246 2.279h8.985c1.241 0 2.246-1.02 2.246-2.28v-2.278h31.745v2.279c0 1.26 1.004 2.279 2.246 2.279h8.984c1.242 0 2.246-1.02 2.246-2.28v-2.278h6.739c1.241 0 2.246-1.019 2.246-2.279v-9.114c0-1.26-1.005-2.28-2.246-2.28z" transform="translate(-674 -2813) translate(531 2740) translate(143 73.045) translate(7.667 11.667)"/>
                    </g>
                </g>
            </g>
        </g>
    </g>
</svg>
