<svg xmlns="http://www.w3.org/2000/svg" width="24" height="24" viewBox="0 0 24 24">
    <defs>
        <filter id="hushxueaua">
            <feColorMatrix in="SourceGraphic" values="0 0 0 0 0.247059 0 0 0 0 0.270588 0 0 0 0 0.298039 0 0 0 1.000000 0"/>
        </filter>
    </defs>
    <g fill="none" fill-rule="evenodd">
        <g>
            <g filter="url(#hushxueaua)" transform="translate(-891 -4067) translate(344 3823)">
                <g>
                    <path fill="#000" fill-rule="nonzero" d="M19.835 5.752c-.273.039-.527.167-.721.367L8.999 16.232l-3.115-3.116c-.31-.323-.776-.454-1.214-.34-.438.114-.78.456-.894.894-.114.438.017.904.344 1.217l3.996 3.997c.488.488 1.28.488 1.768 0l11-11c.367-.357.478-.907.277-1.381-.2-.475-.673-.778-1.188-.763l-.138.012z" transform="translate(547 244)"/>
                </g>
            </g>
        </g>
    </g>
</svg>
