<svg xmlns="http://www.w3.org/2000/svg" width="64" height="65" viewBox="0 0 64 65">
    <defs>
        <linearGradient id="71ir6g4qua" x1="15.108%" x2="85.766%" y1="15.703%" y2="86.153%">
            <stop offset="0%" stop-color="#21AD64"/>
            <stop offset="100%" stop-color="#088242"/>
        </linearGradient>
    </defs>
    <g fill="none" fill-rule="evenodd">
        <g fill-rule="nonzero">
            <g>
                <g>
                    <g>
                        <path fill="url(#71ir6g4qua)" d="M29.752 1.487l.959 1.106 1.265-.736c2.15-1.249 4.907-.302 5.836 2.003l.547 1.357 1.434-.284c2.439-.484 4.739 1.307 4.87 3.79l.076 1.461 1.45.197c2.464.335 4.058 2.775 3.375 5.166l-.403 1.406 1.308.658c2.222 1.116 2.938 3.942 1.515 5.981l-.837 1.2 1.024 1.047c1.738 1.777 1.497 4.682-.51 6.148l-1.181.864.628 1.321c1.068 2.245-.104 4.915-2.479 5.65l-1.398.434.165 1.455c.281 2.47-1.693 4.614-4.179 4.538l-1.462-.044-.316 1.43c-.536 2.428-3.1 3.814-5.427 2.936l-1.37-.518-.762 1.25c-1.296 2.121-4.17 2.601-6.085 1.016l-1.128-.935-1.127.933c-1.915 1.586-4.79 1.107-6.085-1.016l-.763-1.249-1.37.517c-2.325.879-4.889-.509-5.426-2.936l-.316-1.429-1.463.044c-2.485.076-4.458-2.07-4.178-4.539l.165-1.454-1.399-.434c-2.374-.734-3.545-3.405-2.478-5.65l.628-1.322-1.182-.864c-2.008-1.466-2.248-4.372-.509-6.148l1.024-1.046-.837-1.2c-1.423-2.039-.707-4.866 1.514-5.982l1.308-.657-.402-1.405c-.684-2.391.91-4.831 3.374-5.166l1.451-.197.076-1.461c.13-2.483 2.43-4.274 4.87-3.79l1.435.286.547-1.358c.93-2.305 3.687-3.252 5.836-2.002l1.265.736.959-1.107c1.625-1.881 4.54-1.881 6.168-.001z" transform="translate(-770 -2048) translate(746 2025) translate(24 24) translate(5.333 5.333)"/>
                        <path fill="#000" d="M37.563 16.23L24 29.791l-6.896-6.896c-1.041-1.041-2.73-1.041-3.77 0l-1.886 1.885c-1.041 1.042-1.041 2.73 0 3.771l10.667 10.667c1.041 1.041 2.729 1.041 3.77 0L43.22 21.885c1.041-1.041 1.041-2.729 0-3.77l-1.886-1.886c-1.041-1.041-2.729-1.041-3.77 0z" opacity=".05" transform="translate(-770 -2048) translate(746 2025) translate(24 24) translate(5.333 5.333)"/>
                        <path fill="#000" d="M22.585 38.748L11.92 28.081c-.782-.781-.782-2.048 0-2.828l1.885-1.885c.781-.781 2.048-.781 2.828 0L24 30.735 38.033 16.7c.782-.781 2.048-.781 2.828 0l1.886 1.886c.781.781.781 2.048 0 2.828L25.413 38.748c-.78.78-2.046.78-2.828 0z" opacity=".07" transform="translate(-770 -2048) translate(746 2025) translate(24 24) translate(5.333 5.333)"/>
                        <path fill="#FCFF63" d="M23.057 38.276L12.391 27.609c-.522-.521-.522-1.365 0-1.885l1.885-1.885c.521-.522 1.365-.522 1.885 0L24 31.677l14.505-14.505c.522-.521 1.366-.521 1.886 0l1.885 1.885c.521.522.521 1.366 0 1.886L24.943 38.276c-.52.521-1.366.521-1.886 0z" transform="translate(-770 -2048) translate(746 2025) translate(24 24) translate(5.333 5.333)"/>
                    </g>
                </g>
            </g>
        </g>
    </g>
</svg>
